<mxfile host="app.diagrams.net" modified="2021-11-11T18:58:09.234Z" agent="5.0 (X11; Linux x86_64) AppleWebKit/537.36 (KHTML, like Gecko) Chrome/95.0.4638.69 Safari/537.36" etag="6299l-HJtRd4gldfIKbM" version="15.7.3" type="github">
  <diagram id="R2lEEEUBdFMjLlhIrx00" name="Page-1">
    <mxGraphModel dx="2450" dy="2022" grid="1" gridSize="10" guides="1" tooltips="1" connect="1" arrows="1" fold="1" page="1" pageScale="1" pageWidth="850" pageHeight="1100" math="0" shadow="0" extFonts="Permanent Marker^https://fonts.googleapis.com/css?family=Permanent+Marker">
      <root>
        <mxCell id="0" />
        <mxCell id="1" parent="0" />
        <mxCell id="C-vyLk0tnHw3VtMMgP7b-12" value="" style="edgeStyle=entityRelationEdgeStyle;endArrow=ERzeroToMany;startArrow=ERone;endFill=1;startFill=0;" parent="1" target="C-vyLk0tnHw3VtMMgP7b-17" edge="1">
          <mxGeometry width="100" height="100" relative="1" as="geometry">
            <mxPoint x="700" y="165" as="sourcePoint" />
            <mxPoint x="460" y="205" as="targetPoint" />
          </mxGeometry>
        </mxCell>
        <mxCell id="Kf4U1MBV0LvPlCfvXdAC-1" style="edgeStyle=orthogonalEdgeStyle;curved=1;orthogonalLoop=1;jettySize=auto;html=1;exitX=0;exitY=0;exitDx=0;exitDy=0;entryX=1;entryY=0.5;entryDx=0;entryDy=0;endArrow=openThin;endFill=0;" edge="1" parent="1" source="Kf4U1MBV0LvPlCfvXdAC-4" target="Kf4U1MBV0LvPlCfvXdAC-7">
          <mxGeometry relative="1" as="geometry" />
        </mxCell>
        <mxCell id="Kf4U1MBV0LvPlCfvXdAC-2" style="edgeStyle=orthogonalEdgeStyle;curved=1;orthogonalLoop=1;jettySize=auto;html=1;exitX=1;exitY=0;exitDx=0;exitDy=0;entryX=0;entryY=0.5;entryDx=0;entryDy=0;endArrow=openThin;endFill=0;" edge="1" parent="1" source="Kf4U1MBV0LvPlCfvXdAC-4" target="Kf4U1MBV0LvPlCfvXdAC-5">
          <mxGeometry relative="1" as="geometry" />
        </mxCell>
        <mxCell id="Kf4U1MBV0LvPlCfvXdAC-3" style="edgeStyle=orthogonalEdgeStyle;curved=1;orthogonalLoop=1;jettySize=auto;html=1;exitX=1;exitY=1;exitDx=0;exitDy=0;entryX=0;entryY=0.5;entryDx=0;entryDy=0;endArrow=openThin;endFill=0;" edge="1" parent="1" source="Kf4U1MBV0LvPlCfvXdAC-4" target="Kf4U1MBV0LvPlCfvXdAC-8">
          <mxGeometry relative="1" as="geometry" />
        </mxCell>
        <mxCell id="Kf4U1MBV0LvPlCfvXdAC-16" style="edgeStyle=orthogonalEdgeStyle;orthogonalLoop=1;jettySize=auto;html=1;exitX=0;exitY=0.75;exitDx=0;exitDy=0;entryX=1;entryY=0.5;entryDx=0;entryDy=0;curved=1;" edge="1" parent="1" source="Kf4U1MBV0LvPlCfvXdAC-4" target="Kf4U1MBV0LvPlCfvXdAC-6">
          <mxGeometry relative="1" as="geometry" />
        </mxCell>
        <mxCell id="Kf4U1MBV0LvPlCfvXdAC-4" value="User" style="whiteSpace=wrap;html=1;align=center;" vertex="1" parent="1">
          <mxGeometry x="375" y="30" width="100" height="40" as="geometry" />
        </mxCell>
        <mxCell id="Kf4U1MBV0LvPlCfvXdAC-5" value="Email" style="ellipse;whiteSpace=wrap;html=1;align=center;" vertex="1" parent="1">
          <mxGeometry x="510" y="-10" width="100" height="40" as="geometry" />
        </mxCell>
        <mxCell id="Kf4U1MBV0LvPlCfvXdAC-20" style="edgeStyle=orthogonalEdgeStyle;curved=1;orthogonalLoop=1;jettySize=auto;html=1;exitX=0;exitY=0.5;exitDx=0;exitDy=0;entryX=1;entryY=0.5;entryDx=0;entryDy=0;" edge="1" parent="1" source="Kf4U1MBV0LvPlCfvXdAC-6" target="Kf4U1MBV0LvPlCfvXdAC-19">
          <mxGeometry relative="1" as="geometry" />
        </mxCell>
        <mxCell id="Kf4U1MBV0LvPlCfvXdAC-21" style="edgeStyle=orthogonalEdgeStyle;curved=1;orthogonalLoop=1;jettySize=auto;html=1;exitX=0;exitY=1;exitDx=0;exitDy=0;entryX=1;entryY=0.5;entryDx=0;entryDy=0;" edge="1" parent="1" source="Kf4U1MBV0LvPlCfvXdAC-6" target="Kf4U1MBV0LvPlCfvXdAC-17">
          <mxGeometry relative="1" as="geometry" />
        </mxCell>
        <mxCell id="Kf4U1MBV0LvPlCfvXdAC-6" value="Name&lt;br&gt;" style="ellipse;whiteSpace=wrap;html=1;align=center;" vertex="1" parent="1">
          <mxGeometry x="195" y="40" width="100" height="40" as="geometry" />
        </mxCell>
        <mxCell id="Kf4U1MBV0LvPlCfvXdAC-7" value="Faculty" style="ellipse;whiteSpace=wrap;html=1;align=center;" vertex="1" parent="1">
          <mxGeometry x="195" y="-10" width="100" height="40" as="geometry" />
        </mxCell>
        <mxCell id="Kf4U1MBV0LvPlCfvXdAC-8" value="ID" style="ellipse;whiteSpace=wrap;html=1;align=center;fontStyle=4;" vertex="1" parent="1">
          <mxGeometry x="520" y="50" width="100" height="40" as="geometry" />
        </mxCell>
        <mxCell id="Kf4U1MBV0LvPlCfvXdAC-9" value="" style="shape=link;html=1;rounded=0;exitX=0.5;exitY=1;exitDx=0;exitDy=0;entryX=0.5;entryY=0;entryDx=0;entryDy=0;" edge="1" parent="1" source="Kf4U1MBV0LvPlCfvXdAC-4" target="Kf4U1MBV0LvPlCfvXdAC-10">
          <mxGeometry width="100" relative="1" as="geometry">
            <mxPoint x="360" y="140" as="sourcePoint" />
            <mxPoint x="419" y="150" as="targetPoint" />
          </mxGeometry>
        </mxCell>
        <mxCell id="Kf4U1MBV0LvPlCfvXdAC-25" style="edgeStyle=orthogonalEdgeStyle;curved=1;orthogonalLoop=1;jettySize=auto;html=1;exitX=0;exitY=0.5;exitDx=0;exitDy=0;entryX=0.5;entryY=0;entryDx=0;entryDy=0;" edge="1" parent="1" source="Kf4U1MBV0LvPlCfvXdAC-10" target="Kf4U1MBV0LvPlCfvXdAC-22">
          <mxGeometry relative="1" as="geometry" />
        </mxCell>
        <mxCell id="Kf4U1MBV0LvPlCfvXdAC-26" style="edgeStyle=orthogonalEdgeStyle;curved=1;orthogonalLoop=1;jettySize=auto;html=1;exitX=0.5;exitY=1;exitDx=0;exitDy=0;entryX=0.5;entryY=0;entryDx=0;entryDy=0;" edge="1" parent="1" source="Kf4U1MBV0LvPlCfvXdAC-10" target="Kf4U1MBV0LvPlCfvXdAC-23">
          <mxGeometry relative="1" as="geometry" />
        </mxCell>
        <mxCell id="Kf4U1MBV0LvPlCfvXdAC-27" style="edgeStyle=orthogonalEdgeStyle;curved=1;orthogonalLoop=1;jettySize=auto;html=1;exitX=1;exitY=0.5;exitDx=0;exitDy=0;entryX=0.5;entryY=0;entryDx=0;entryDy=0;" edge="1" parent="1" source="Kf4U1MBV0LvPlCfvXdAC-10" target="Kf4U1MBV0LvPlCfvXdAC-24">
          <mxGeometry relative="1" as="geometry" />
        </mxCell>
        <mxCell id="Kf4U1MBV0LvPlCfvXdAC-10" value="D" style="ellipse;whiteSpace=wrap;html=1;" vertex="1" parent="1">
          <mxGeometry x="410" y="115" width="30" height="30" as="geometry" />
        </mxCell>
        <mxCell id="Kf4U1MBV0LvPlCfvXdAC-17" value="L-Name" style="ellipse;whiteSpace=wrap;html=1;align=center;" vertex="1" parent="1">
          <mxGeometry x="40" y="75" width="100" height="40" as="geometry" />
        </mxCell>
        <mxCell id="Kf4U1MBV0LvPlCfvXdAC-19" value="F-Name" style="ellipse;whiteSpace=wrap;html=1;align=center;" vertex="1" parent="1">
          <mxGeometry x="40" y="30" width="100" height="40" as="geometry" />
        </mxCell>
        <mxCell id="Kf4U1MBV0LvPlCfvXdAC-31" style="edgeStyle=orthogonalEdgeStyle;curved=1;orthogonalLoop=1;jettySize=auto;html=1;exitX=0;exitY=0;exitDx=0;exitDy=0;entryX=1;entryY=0.5;entryDx=0;entryDy=0;" edge="1" parent="1" source="Kf4U1MBV0LvPlCfvXdAC-22" target="Kf4U1MBV0LvPlCfvXdAC-28">
          <mxGeometry relative="1" as="geometry" />
        </mxCell>
        <mxCell id="Kf4U1MBV0LvPlCfvXdAC-32" style="edgeStyle=orthogonalEdgeStyle;curved=1;orthogonalLoop=1;jettySize=auto;html=1;exitX=0;exitY=0.5;exitDx=0;exitDy=0;entryX=1;entryY=0.5;entryDx=0;entryDy=0;" edge="1" parent="1" source="Kf4U1MBV0LvPlCfvXdAC-22" target="Kf4U1MBV0LvPlCfvXdAC-30">
          <mxGeometry relative="1" as="geometry" />
        </mxCell>
        <mxCell id="Kf4U1MBV0LvPlCfvXdAC-34" style="edgeStyle=orthogonalEdgeStyle;curved=1;orthogonalLoop=1;jettySize=auto;html=1;exitX=0;exitY=1;exitDx=0;exitDy=0;entryX=1;entryY=0.5;entryDx=0;entryDy=0;" edge="1" parent="1" source="Kf4U1MBV0LvPlCfvXdAC-22" target="Kf4U1MBV0LvPlCfvXdAC-33">
          <mxGeometry relative="1" as="geometry" />
        </mxCell>
        <mxCell id="Kf4U1MBV0LvPlCfvXdAC-37" style="edgeStyle=orthogonalEdgeStyle;curved=1;orthogonalLoop=1;jettySize=auto;html=1;exitX=0.25;exitY=1;exitDx=0;exitDy=0;entryX=1;entryY=0.5;entryDx=0;entryDy=0;" edge="1" parent="1" source="Kf4U1MBV0LvPlCfvXdAC-22" target="Kf4U1MBV0LvPlCfvXdAC-35">
          <mxGeometry relative="1" as="geometry" />
        </mxCell>
        <mxCell id="Kf4U1MBV0LvPlCfvXdAC-22" value="Student" style="whiteSpace=wrap;html=1;align=center;" vertex="1" parent="1">
          <mxGeometry x="240" y="200" width="100" height="40" as="geometry" />
        </mxCell>
        <mxCell id="Kf4U1MBV0LvPlCfvXdAC-23" value="SuperVisor" style="whiteSpace=wrap;html=1;align=center;" vertex="1" parent="1">
          <mxGeometry x="370" y="200" width="100" height="40" as="geometry" />
        </mxCell>
        <mxCell id="Kf4U1MBV0LvPlCfvXdAC-24" value="Admin" style="whiteSpace=wrap;html=1;align=center;" vertex="1" parent="1">
          <mxGeometry x="500" y="200" width="100" height="40" as="geometry" />
        </mxCell>
        <mxCell id="Kf4U1MBV0LvPlCfvXdAC-28" value="GPA" style="ellipse;whiteSpace=wrap;html=1;align=center;" vertex="1" parent="1">
          <mxGeometry x="50" y="160" width="100" height="40" as="geometry" />
        </mxCell>
        <mxCell id="Kf4U1MBV0LvPlCfvXdAC-30" value="Type" style="ellipse;whiteSpace=wrap;html=1;align=center;" vertex="1" parent="1">
          <mxGeometry x="50" y="200" width="100" height="40" as="geometry" />
        </mxCell>
        <mxCell id="Kf4U1MBV0LvPlCfvXdAC-33" value="Address" style="ellipse;whiteSpace=wrap;html=1;align=center;" vertex="1" parent="1">
          <mxGeometry x="50" y="240" width="100" height="40" as="geometry" />
        </mxCell>
        <mxCell id="Kf4U1MBV0LvPlCfvXdAC-35" value="Phone-Number" style="ellipse;shape=doubleEllipse;margin=3;whiteSpace=wrap;html=1;align=center;" vertex="1" parent="1">
          <mxGeometry x="50" y="280" width="100" height="40" as="geometry" />
        </mxCell>
        <mxCell id="Kf4U1MBV0LvPlCfvXdAC-43" style="edgeStyle=orthogonalEdgeStyle;curved=1;orthogonalLoop=1;jettySize=auto;html=1;exitX=0;exitY=1;exitDx=0;exitDy=0;entryX=0.5;entryY=0;entryDx=0;entryDy=0;" edge="1" parent="1" source="Kf4U1MBV0LvPlCfvXdAC-39" target="Kf4U1MBV0LvPlCfvXdAC-41">
          <mxGeometry relative="1" as="geometry" />
        </mxCell>
        <mxCell id="Kf4U1MBV0LvPlCfvXdAC-44" style="edgeStyle=orthogonalEdgeStyle;curved=1;orthogonalLoop=1;jettySize=auto;html=1;exitX=1;exitY=1;exitDx=0;exitDy=0;entryX=0.5;entryY=0;entryDx=0;entryDy=0;" edge="1" parent="1" source="Kf4U1MBV0LvPlCfvXdAC-39" target="Kf4U1MBV0LvPlCfvXdAC-42">
          <mxGeometry relative="1" as="geometry" />
        </mxCell>
        <mxCell id="Kf4U1MBV0LvPlCfvXdAC-39" value="D" style="ellipse;whiteSpace=wrap;html=1;aspect=fixed;" vertex="1" parent="1">
          <mxGeometry x="275" y="285" width="30" height="30" as="geometry" />
        </mxCell>
        <mxCell id="Kf4U1MBV0LvPlCfvXdAC-40" value="" style="shape=link;html=1;curved=1;exitX=0.5;exitY=1;exitDx=0;exitDy=0;entryX=0.5;entryY=0;entryDx=0;entryDy=0;" edge="1" parent="1" source="Kf4U1MBV0LvPlCfvXdAC-22" target="Kf4U1MBV0LvPlCfvXdAC-39">
          <mxGeometry width="100" relative="1" as="geometry">
            <mxPoint x="275" y="270" as="sourcePoint" />
            <mxPoint x="375" y="270" as="targetPoint" />
          </mxGeometry>
        </mxCell>
        <mxCell id="Kf4U1MBV0LvPlCfvXdAC-41" value="Gucian" style="whiteSpace=wrap;html=1;align=center;" vertex="1" parent="1">
          <mxGeometry x="160" y="340" width="100" height="40" as="geometry" />
        </mxCell>
        <mxCell id="Kf4U1MBV0LvPlCfvXdAC-42" value="Non-Gucian" style="whiteSpace=wrap;html=1;align=center;" vertex="1" parent="1">
          <mxGeometry x="350" y="340" width="100" height="40" as="geometry" />
        </mxCell>
        <mxCell id="Kf4U1MBV0LvPlCfvXdAC-48" style="edgeStyle=orthogonalEdgeStyle;curved=1;orthogonalLoop=1;jettySize=auto;html=1;exitX=1;exitY=0.25;exitDx=0;exitDy=0;entryX=0;entryY=0.5;entryDx=0;entryDy=0;" edge="1" parent="1" source="Kf4U1MBV0LvPlCfvXdAC-46" target="Kf4U1MBV0LvPlCfvXdAC-47">
          <mxGeometry relative="1" as="geometry" />
        </mxCell>
        <mxCell id="Kf4U1MBV0LvPlCfvXdAC-56" style="edgeStyle=orthogonalEdgeStyle;curved=1;orthogonalLoop=1;jettySize=auto;html=1;exitX=0;exitY=0.25;exitDx=0;exitDy=0;entryX=1;entryY=0.5;entryDx=0;entryDy=0;" edge="1" parent="1" source="Kf4U1MBV0LvPlCfvXdAC-46" target="Kf4U1MBV0LvPlCfvXdAC-55">
          <mxGeometry relative="1" as="geometry" />
        </mxCell>
        <mxCell id="Kf4U1MBV0LvPlCfvXdAC-60" style="edgeStyle=orthogonalEdgeStyle;curved=1;orthogonalLoop=1;jettySize=auto;html=1;exitX=0;exitY=1;exitDx=0;exitDy=0;entryX=0.956;entryY=0.239;entryDx=0;entryDy=0;entryPerimeter=0;" edge="1" parent="1" source="Kf4U1MBV0LvPlCfvXdAC-46" target="Kf4U1MBV0LvPlCfvXdAC-51">
          <mxGeometry relative="1" as="geometry" />
        </mxCell>
        <mxCell id="Kf4U1MBV0LvPlCfvXdAC-63" style="edgeStyle=orthogonalEdgeStyle;curved=1;orthogonalLoop=1;jettySize=auto;html=1;exitX=1;exitY=0.5;exitDx=0;exitDy=0;entryX=0;entryY=0.5;entryDx=0;entryDy=0;" edge="1" parent="1" source="Kf4U1MBV0LvPlCfvXdAC-46" target="Kf4U1MBV0LvPlCfvXdAC-49">
          <mxGeometry relative="1" as="geometry" />
        </mxCell>
        <mxCell id="Kf4U1MBV0LvPlCfvXdAC-66" style="edgeStyle=orthogonalEdgeStyle;curved=1;orthogonalLoop=1;jettySize=auto;html=1;exitX=1;exitY=0;exitDx=0;exitDy=0;entryX=0;entryY=0.5;entryDx=0;entryDy=0;" edge="1" parent="1" source="Kf4U1MBV0LvPlCfvXdAC-46" target="Kf4U1MBV0LvPlCfvXdAC-50">
          <mxGeometry relative="1" as="geometry" />
        </mxCell>
        <mxCell id="Kf4U1MBV0LvPlCfvXdAC-67" style="edgeStyle=orthogonalEdgeStyle;curved=1;orthogonalLoop=1;jettySize=auto;html=1;exitX=0;exitY=0;exitDx=0;exitDy=0;entryX=1;entryY=0.5;entryDx=0;entryDy=0;" edge="1" parent="1" source="Kf4U1MBV0LvPlCfvXdAC-46" target="Kf4U1MBV0LvPlCfvXdAC-54">
          <mxGeometry relative="1" as="geometry" />
        </mxCell>
        <mxCell id="Kf4U1MBV0LvPlCfvXdAC-163" style="edgeStyle=orthogonalEdgeStyle;curved=1;orthogonalLoop=1;jettySize=auto;html=1;exitX=0;exitY=0.5;exitDx=0;exitDy=0;entryX=1;entryY=0.5;entryDx=0;entryDy=0;" edge="1" parent="1" source="Kf4U1MBV0LvPlCfvXdAC-46" target="Kf4U1MBV0LvPlCfvXdAC-53">
          <mxGeometry relative="1" as="geometry" />
        </mxCell>
        <mxCell id="Kf4U1MBV0LvPlCfvXdAC-164" style="edgeStyle=orthogonalEdgeStyle;curved=1;orthogonalLoop=1;jettySize=auto;html=1;exitX=0;exitY=0.75;exitDx=0;exitDy=0;entryX=1;entryY=0.5;entryDx=0;entryDy=0;" edge="1" parent="1" source="Kf4U1MBV0LvPlCfvXdAC-46" target="Kf4U1MBV0LvPlCfvXdAC-52">
          <mxGeometry relative="1" as="geometry" />
        </mxCell>
        <mxCell id="Kf4U1MBV0LvPlCfvXdAC-46" value="Thesis" style="whiteSpace=wrap;html=1;align=center;" vertex="1" parent="1">
          <mxGeometry x="-190" y="450" width="100" height="40" as="geometry" />
        </mxCell>
        <mxCell id="Kf4U1MBV0LvPlCfvXdAC-47" value="Serial_Number" style="ellipse;whiteSpace=wrap;html=1;align=center;fontStyle=4;" vertex="1" parent="1">
          <mxGeometry x="-40" y="430" width="100" height="40" as="geometry" />
        </mxCell>
        <mxCell id="Kf4U1MBV0LvPlCfvXdAC-49" value="Number_Of_Extensions" style="ellipse;whiteSpace=wrap;html=1;align=center;" vertex="1" parent="1">
          <mxGeometry x="-60" y="475" width="140" height="50" as="geometry" />
        </mxCell>
        <mxCell id="Kf4U1MBV0LvPlCfvXdAC-50" value="Serminar_Date" style="ellipse;whiteSpace=wrap;html=1;align=center;" vertex="1" parent="1">
          <mxGeometry x="-40" y="380" width="100" height="40" as="geometry" />
        </mxCell>
        <mxCell id="Kf4U1MBV0LvPlCfvXdAC-51" value="Start_Date" style="ellipse;whiteSpace=wrap;html=1;align=center;" vertex="1" parent="1">
          <mxGeometry x="-420" y="430" width="100" height="40" as="geometry" />
        </mxCell>
        <mxCell id="Kf4U1MBV0LvPlCfvXdAC-52" value="Field" style="ellipse;whiteSpace=wrap;html=1;align=center;" vertex="1" parent="1">
          <mxGeometry x="-420" y="380" width="100" height="40" as="geometry" />
        </mxCell>
        <mxCell id="Kf4U1MBV0LvPlCfvXdAC-53" value="Type" style="ellipse;whiteSpace=wrap;html=1;align=center;" vertex="1" parent="1">
          <mxGeometry x="-420" y="330" width="100" height="40" as="geometry" />
        </mxCell>
        <mxCell id="Kf4U1MBV0LvPlCfvXdAC-54" value="Years" style="ellipse;whiteSpace=wrap;html=1;align=center;dashed=1;" vertex="1" parent="1">
          <mxGeometry x="-420" y="240" width="100" height="40" as="geometry" />
        </mxCell>
        <mxCell id="Kf4U1MBV0LvPlCfvXdAC-55" value="Title" style="ellipse;whiteSpace=wrap;html=1;align=center;" vertex="1" parent="1">
          <mxGeometry x="-420" y="285" width="100" height="40" as="geometry" />
        </mxCell>
        <mxCell id="Kf4U1MBV0LvPlCfvXdAC-65" value="Has" style="shape=rhombus;double=1;perimeter=rhombusPerimeter;whiteSpace=wrap;html=1;align=center;" vertex="1" parent="1">
          <mxGeometry x="-190" y="200" width="120" height="60" as="geometry" />
        </mxCell>
        <mxCell id="Kf4U1MBV0LvPlCfvXdAC-73" style="edgeStyle=orthogonalEdgeStyle;curved=1;orthogonalLoop=1;jettySize=auto;html=1;exitX=0;exitY=0.25;exitDx=0;exitDy=0;entryX=1;entryY=0.5;entryDx=0;entryDy=0;" edge="1" parent="1" source="Kf4U1MBV0LvPlCfvXdAC-68" target="Kf4U1MBV0LvPlCfvXdAC-72">
          <mxGeometry relative="1" as="geometry" />
        </mxCell>
        <mxCell id="Kf4U1MBV0LvPlCfvXdAC-74" style="edgeStyle=orthogonalEdgeStyle;curved=1;orthogonalLoop=1;jettySize=auto;html=1;exitX=0;exitY=0.5;exitDx=0;exitDy=0;entryX=1;entryY=0.5;entryDx=0;entryDy=0;" edge="1" parent="1" source="Kf4U1MBV0LvPlCfvXdAC-68" target="Kf4U1MBV0LvPlCfvXdAC-71">
          <mxGeometry relative="1" as="geometry" />
        </mxCell>
        <mxCell id="Kf4U1MBV0LvPlCfvXdAC-75" style="edgeStyle=orthogonalEdgeStyle;curved=1;orthogonalLoop=1;jettySize=auto;html=1;exitX=0;exitY=1;exitDx=0;exitDy=0;entryX=1;entryY=0.5;entryDx=0;entryDy=0;" edge="1" parent="1" source="Kf4U1MBV0LvPlCfvXdAC-68" target="Kf4U1MBV0LvPlCfvXdAC-70">
          <mxGeometry relative="1" as="geometry" />
        </mxCell>
        <mxCell id="Kf4U1MBV0LvPlCfvXdAC-68" value="Defense" style="shape=ext;margin=3;double=1;whiteSpace=wrap;html=1;align=center;" vertex="1" parent="1">
          <mxGeometry x="-180" y="70" width="100" height="40" as="geometry" />
        </mxCell>
        <mxCell id="Kf4U1MBV0LvPlCfvXdAC-70" value="Location" style="ellipse;whiteSpace=wrap;html=1;align=center;" vertex="1" parent="1">
          <mxGeometry x="-310" y="130" width="100" height="40" as="geometry" />
        </mxCell>
        <mxCell id="Kf4U1MBV0LvPlCfvXdAC-71" value="Grade" style="ellipse;whiteSpace=wrap;html=1;align=center;" vertex="1" parent="1">
          <mxGeometry x="-310" y="90" width="100" height="40" as="geometry" />
        </mxCell>
        <mxCell id="Kf4U1MBV0LvPlCfvXdAC-72" value="Date" style="ellipse;whiteSpace=wrap;html=1;align=center;" vertex="1" parent="1">
          <mxGeometry x="-310" y="50" width="100" height="40" as="geometry" />
        </mxCell>
        <mxCell id="Kf4U1MBV0LvPlCfvXdAC-83" style="edgeStyle=orthogonalEdgeStyle;curved=1;orthogonalLoop=1;jettySize=auto;html=1;exitX=0;exitY=0;exitDx=0;exitDy=0;entryX=1;entryY=0.5;entryDx=0;entryDy=0;" edge="1" parent="1" source="Kf4U1MBV0LvPlCfvXdAC-76" target="Kf4U1MBV0LvPlCfvXdAC-81">
          <mxGeometry relative="1" as="geometry" />
        </mxCell>
        <mxCell id="Kf4U1MBV0LvPlCfvXdAC-84" style="edgeStyle=orthogonalEdgeStyle;curved=1;orthogonalLoop=1;jettySize=auto;html=1;exitX=0;exitY=0.25;exitDx=0;exitDy=0;entryX=1;entryY=0.5;entryDx=0;entryDy=0;" edge="1" parent="1" source="Kf4U1MBV0LvPlCfvXdAC-76" target="Kf4U1MBV0LvPlCfvXdAC-79">
          <mxGeometry relative="1" as="geometry" />
        </mxCell>
        <mxCell id="Kf4U1MBV0LvPlCfvXdAC-85" style="edgeStyle=orthogonalEdgeStyle;curved=1;orthogonalLoop=1;jettySize=auto;html=1;exitX=0;exitY=0.5;exitDx=0;exitDy=0;entryX=1;entryY=0.5;entryDx=0;entryDy=0;" edge="1" parent="1" source="Kf4U1MBV0LvPlCfvXdAC-76" target="Kf4U1MBV0LvPlCfvXdAC-77">
          <mxGeometry relative="1" as="geometry" />
        </mxCell>
        <mxCell id="Kf4U1MBV0LvPlCfvXdAC-86" style="edgeStyle=orthogonalEdgeStyle;curved=1;orthogonalLoop=1;jettySize=auto;html=1;exitX=0;exitY=0.75;exitDx=0;exitDy=0;entryX=1;entryY=0.5;entryDx=0;entryDy=0;" edge="1" parent="1" source="Kf4U1MBV0LvPlCfvXdAC-76" target="Kf4U1MBV0LvPlCfvXdAC-80">
          <mxGeometry relative="1" as="geometry" />
        </mxCell>
        <mxCell id="Kf4U1MBV0LvPlCfvXdAC-89" style="edgeStyle=orthogonalEdgeStyle;curved=1;orthogonalLoop=1;jettySize=auto;html=1;exitX=0.25;exitY=0;exitDx=0;exitDy=0;entryX=1;entryY=0.5;entryDx=0;entryDy=0;" edge="1" parent="1" source="Kf4U1MBV0LvPlCfvXdAC-76" target="Kf4U1MBV0LvPlCfvXdAC-88">
          <mxGeometry relative="1" as="geometry" />
        </mxCell>
        <mxCell id="Kf4U1MBV0LvPlCfvXdAC-76" value="Examiner" style="whiteSpace=wrap;html=1;align=center;" vertex="1" parent="1">
          <mxGeometry x="-180" y="-140" width="100" height="40" as="geometry" />
        </mxCell>
        <mxCell id="Kf4U1MBV0LvPlCfvXdAC-77" value="Name" style="ellipse;whiteSpace=wrap;html=1;align=center;" vertex="1" parent="1">
          <mxGeometry x="-340" y="-120" width="100" height="40" as="geometry" />
        </mxCell>
        <mxCell id="Kf4U1MBV0LvPlCfvXdAC-79" value="ID" style="ellipse;whiteSpace=wrap;html=1;align=center;fontStyle=4;" vertex="1" parent="1">
          <mxGeometry x="-340" y="-170" width="100" height="40" as="geometry" />
        </mxCell>
        <mxCell id="Kf4U1MBV0LvPlCfvXdAC-80" value="Field" style="ellipse;whiteSpace=wrap;html=1;align=center;" vertex="1" parent="1">
          <mxGeometry x="-340" y="-70" width="100" height="40" as="geometry" />
        </mxCell>
        <mxCell id="Kf4U1MBV0LvPlCfvXdAC-81" value="Nationality" style="ellipse;whiteSpace=wrap;html=1;align=center;" vertex="1" parent="1">
          <mxGeometry x="-340" y="-220" width="100" height="40" as="geometry" />
        </mxCell>
        <mxCell id="Kf4U1MBV0LvPlCfvXdAC-87" value="Relationship" style="shape=rhombus;perimeter=rhombusPerimeter;whiteSpace=wrap;html=1;align=center;" vertex="1" parent="1">
          <mxGeometry x="-200" y="-40" width="120" height="60" as="geometry" />
        </mxCell>
        <mxCell id="Kf4U1MBV0LvPlCfvXdAC-88" value="Comment" style="ellipse;whiteSpace=wrap;html=1;align=center;" vertex="1" parent="1">
          <mxGeometry x="-330" y="-270" width="100" height="40" as="geometry" />
        </mxCell>
        <mxCell id="Kf4U1MBV0LvPlCfvXdAC-107" value="Evaltion" style="ellipse;whiteSpace=wrap;html=1;align=center;" vertex="1" parent="1">
          <mxGeometry x="-800" y="400" width="100" height="40" as="geometry" />
        </mxCell>
        <mxCell id="Kf4U1MBV0LvPlCfvXdAC-108" value="Date" style="ellipse;whiteSpace=wrap;html=1;align=center;" vertex="1" parent="1">
          <mxGeometry x="-800" y="445" width="100" height="40" as="geometry" />
        </mxCell>
        <mxCell id="Kf4U1MBV0LvPlCfvXdAC-109" value="Description" style="ellipse;whiteSpace=wrap;html=1;align=center;" vertex="1" parent="1">
          <mxGeometry x="-800" y="490" width="100" height="40" as="geometry" />
        </mxCell>
        <mxCell id="Kf4U1MBV0LvPlCfvXdAC-111" style="edgeStyle=orthogonalEdgeStyle;curved=1;orthogonalLoop=1;jettySize=auto;html=1;exitX=0;exitY=0;exitDx=0;exitDy=0;entryX=1;entryY=0.5;entryDx=0;entryDy=0;" edge="1" parent="1" source="Kf4U1MBV0LvPlCfvXdAC-110" target="Kf4U1MBV0LvPlCfvXdAC-107">
          <mxGeometry relative="1" as="geometry" />
        </mxCell>
        <mxCell id="Kf4U1MBV0LvPlCfvXdAC-112" style="edgeStyle=orthogonalEdgeStyle;curved=1;orthogonalLoop=1;jettySize=auto;html=1;exitX=0;exitY=0.25;exitDx=0;exitDy=0;entryX=1;entryY=0.5;entryDx=0;entryDy=0;" edge="1" parent="1" source="Kf4U1MBV0LvPlCfvXdAC-110" target="Kf4U1MBV0LvPlCfvXdAC-108">
          <mxGeometry relative="1" as="geometry" />
        </mxCell>
        <mxCell id="Kf4U1MBV0LvPlCfvXdAC-113" style="edgeStyle=orthogonalEdgeStyle;curved=1;orthogonalLoop=1;jettySize=auto;html=1;exitX=0;exitY=0.75;exitDx=0;exitDy=0;entryX=1;entryY=0.5;entryDx=0;entryDy=0;" edge="1" parent="1" source="Kf4U1MBV0LvPlCfvXdAC-110" target="Kf4U1MBV0LvPlCfvXdAC-109">
          <mxGeometry relative="1" as="geometry" />
        </mxCell>
        <mxCell id="Kf4U1MBV0LvPlCfvXdAC-110" value="Progress_Report" style="shape=ext;margin=3;double=1;whiteSpace=wrap;html=1;align=center;" vertex="1" parent="1">
          <mxGeometry x="-660" y="445" width="110" height="40" as="geometry" />
        </mxCell>
        <mxCell id="Kf4U1MBV0LvPlCfvXdAC-114" value="Has" style="shape=rhombus;double=1;perimeter=rhombusPerimeter;whiteSpace=wrap;html=1;align=center;" vertex="1" parent="1">
          <mxGeometry x="-430" y="630" width="120" height="60" as="geometry" />
        </mxCell>
        <mxCell id="Kf4U1MBV0LvPlCfvXdAC-119" style="edgeStyle=orthogonalEdgeStyle;curved=1;orthogonalLoop=1;jettySize=auto;html=1;exitX=1;exitY=0.25;exitDx=0;exitDy=0;entryX=0;entryY=0.5;entryDx=0;entryDy=0;" edge="1" parent="1" source="Kf4U1MBV0LvPlCfvXdAC-115" target="Kf4U1MBV0LvPlCfvXdAC-116">
          <mxGeometry relative="1" as="geometry" />
        </mxCell>
        <mxCell id="Kf4U1MBV0LvPlCfvXdAC-120" style="edgeStyle=orthogonalEdgeStyle;curved=1;orthogonalLoop=1;jettySize=auto;html=1;exitX=1;exitY=0.5;exitDx=0;exitDy=0;entryX=0;entryY=0.5;entryDx=0;entryDy=0;" edge="1" parent="1" source="Kf4U1MBV0LvPlCfvXdAC-115" target="Kf4U1MBV0LvPlCfvXdAC-118">
          <mxGeometry relative="1" as="geometry" />
        </mxCell>
        <mxCell id="Kf4U1MBV0LvPlCfvXdAC-121" style="edgeStyle=orthogonalEdgeStyle;curved=1;orthogonalLoop=1;jettySize=auto;html=1;exitX=1;exitY=0.75;exitDx=0;exitDy=0;entryX=0;entryY=0.5;entryDx=0;entryDy=0;exitPerimeter=0;" edge="1" parent="1" source="Kf4U1MBV0LvPlCfvXdAC-115" target="Kf4U1MBV0LvPlCfvXdAC-117">
          <mxGeometry relative="1" as="geometry" />
        </mxCell>
        <mxCell id="Kf4U1MBV0LvPlCfvXdAC-115" value="Course" style="whiteSpace=wrap;html=1;align=center;" vertex="1" parent="1">
          <mxGeometry x="630" y="440" width="100" height="40" as="geometry" />
        </mxCell>
        <mxCell id="Kf4U1MBV0LvPlCfvXdAC-116" value="Code" style="ellipse;whiteSpace=wrap;html=1;align=center;" vertex="1" parent="1">
          <mxGeometry x="780" y="390" width="100" height="40" as="geometry" />
        </mxCell>
        <mxCell id="Kf4U1MBV0LvPlCfvXdAC-117" value="Credit_Hours" style="ellipse;whiteSpace=wrap;html=1;align=center;" vertex="1" parent="1">
          <mxGeometry x="780" y="485" width="100" height="40" as="geometry" />
        </mxCell>
        <mxCell id="Kf4U1MBV0LvPlCfvXdAC-118" value="ID" style="ellipse;whiteSpace=wrap;html=1;align=center;fontStyle=4;" vertex="1" parent="1">
          <mxGeometry x="780" y="440" width="100" height="40" as="geometry" />
        </mxCell>
        <mxCell id="Kf4U1MBV0LvPlCfvXdAC-129" style="edgeStyle=orthogonalEdgeStyle;curved=1;orthogonalLoop=1;jettySize=auto;html=1;exitX=1;exitY=0;exitDx=0;exitDy=0;entryX=0;entryY=0.5;entryDx=0;entryDy=0;" edge="1" parent="1" source="Kf4U1MBV0LvPlCfvXdAC-122" target="Kf4U1MBV0LvPlCfvXdAC-127">
          <mxGeometry relative="1" as="geometry" />
        </mxCell>
        <mxCell id="Kf4U1MBV0LvPlCfvXdAC-130" style="edgeStyle=orthogonalEdgeStyle;curved=1;orthogonalLoop=1;jettySize=auto;html=1;exitX=1;exitY=0.25;exitDx=0;exitDy=0;entryX=0;entryY=0.5;entryDx=0;entryDy=0;" edge="1" parent="1" source="Kf4U1MBV0LvPlCfvXdAC-122" target="Kf4U1MBV0LvPlCfvXdAC-123">
          <mxGeometry relative="1" as="geometry" />
        </mxCell>
        <mxCell id="Kf4U1MBV0LvPlCfvXdAC-131" style="edgeStyle=orthogonalEdgeStyle;curved=1;orthogonalLoop=1;jettySize=auto;html=1;exitX=1;exitY=0.5;exitDx=0;exitDy=0;entryX=0;entryY=0.5;entryDx=0;entryDy=0;" edge="1" parent="1" source="Kf4U1MBV0LvPlCfvXdAC-122" target="Kf4U1MBV0LvPlCfvXdAC-124">
          <mxGeometry relative="1" as="geometry" />
        </mxCell>
        <mxCell id="Kf4U1MBV0LvPlCfvXdAC-132" style="edgeStyle=orthogonalEdgeStyle;curved=1;orthogonalLoop=1;jettySize=auto;html=1;exitX=1;exitY=0.75;exitDx=0;exitDy=0;entryX=0;entryY=0.5;entryDx=0;entryDy=0;" edge="1" parent="1" source="Kf4U1MBV0LvPlCfvXdAC-122" target="Kf4U1MBV0LvPlCfvXdAC-125">
          <mxGeometry relative="1" as="geometry" />
        </mxCell>
        <mxCell id="Kf4U1MBV0LvPlCfvXdAC-133" style="edgeStyle=orthogonalEdgeStyle;curved=1;orthogonalLoop=1;jettySize=auto;html=1;exitX=1;exitY=1;exitDx=0;exitDy=0;entryX=0;entryY=0.5;entryDx=0;entryDy=0;" edge="1" parent="1" source="Kf4U1MBV0LvPlCfvXdAC-122" target="Kf4U1MBV0LvPlCfvXdAC-126">
          <mxGeometry relative="1" as="geometry" />
        </mxCell>
        <mxCell id="Kf4U1MBV0LvPlCfvXdAC-145" style="edgeStyle=orthogonalEdgeStyle;curved=1;orthogonalLoop=1;jettySize=auto;html=1;exitX=0;exitY=0.5;exitDx=0;exitDy=0;entryX=1;entryY=0;entryDx=0;entryDy=0;" edge="1" parent="1" source="Kf4U1MBV0LvPlCfvXdAC-122" target="Kf4U1MBV0LvPlCfvXdAC-134">
          <mxGeometry relative="1" as="geometry" />
        </mxCell>
        <mxCell id="Kf4U1MBV0LvPlCfvXdAC-122" value="Publication" style="whiteSpace=wrap;html=1;align=center;" vertex="1" parent="1">
          <mxGeometry x="195" y="640" width="100" height="40" as="geometry" />
        </mxCell>
        <mxCell id="Kf4U1MBV0LvPlCfvXdAC-123" value="Date" style="ellipse;whiteSpace=wrap;html=1;align=center;" vertex="1" parent="1">
          <mxGeometry x="350" y="610" width="100" height="40" as="geometry" />
        </mxCell>
        <mxCell id="Kf4U1MBV0LvPlCfvXdAC-124" value="Title" style="ellipse;whiteSpace=wrap;html=1;align=center;" vertex="1" parent="1">
          <mxGeometry x="350" y="660" width="100" height="40" as="geometry" />
        </mxCell>
        <mxCell id="Kf4U1MBV0LvPlCfvXdAC-125" value="HostName" style="ellipse;whiteSpace=wrap;html=1;align=center;" vertex="1" parent="1">
          <mxGeometry x="350" y="710" width="100" height="40" as="geometry" />
        </mxCell>
        <mxCell id="Kf4U1MBV0LvPlCfvXdAC-126" value="Location" style="ellipse;whiteSpace=wrap;html=1;align=center;" vertex="1" parent="1">
          <mxGeometry x="350" y="760" width="100" height="40" as="geometry" />
        </mxCell>
        <mxCell id="Kf4U1MBV0LvPlCfvXdAC-127" value="ID" style="ellipse;whiteSpace=wrap;html=1;align=center;fontStyle=4;" vertex="1" parent="1">
          <mxGeometry x="350" y="560" width="100" height="40" as="geometry" />
        </mxCell>
        <mxCell id="Kf4U1MBV0LvPlCfvXdAC-134" value="Status" style="ellipse;whiteSpace=wrap;html=1;align=center;" vertex="1" parent="1">
          <mxGeometry x="60" y="660" width="100" height="40" as="geometry" />
        </mxCell>
        <mxCell id="Kf4U1MBV0LvPlCfvXdAC-141" style="edgeStyle=orthogonalEdgeStyle;curved=1;orthogonalLoop=1;jettySize=auto;html=1;exitX=1;exitY=0;exitDx=0;exitDy=0;entryX=0;entryY=0.5;entryDx=0;entryDy=0;" edge="1" parent="1" source="Kf4U1MBV0LvPlCfvXdAC-136" target="Kf4U1MBV0LvPlCfvXdAC-137">
          <mxGeometry relative="1" as="geometry" />
        </mxCell>
        <mxCell id="Kf4U1MBV0LvPlCfvXdAC-142" style="edgeStyle=orthogonalEdgeStyle;curved=1;orthogonalLoop=1;jettySize=auto;html=1;exitX=1;exitY=0.25;exitDx=0;exitDy=0;entryX=0;entryY=0.5;entryDx=0;entryDy=0;" edge="1" parent="1" source="Kf4U1MBV0LvPlCfvXdAC-136" target="Kf4U1MBV0LvPlCfvXdAC-138">
          <mxGeometry relative="1" as="geometry" />
        </mxCell>
        <mxCell id="Kf4U1MBV0LvPlCfvXdAC-143" style="edgeStyle=orthogonalEdgeStyle;curved=1;orthogonalLoop=1;jettySize=auto;html=1;exitX=1;exitY=0.5;exitDx=0;exitDy=0;entryX=0;entryY=0.5;entryDx=0;entryDy=0;" edge="1" parent="1" source="Kf4U1MBV0LvPlCfvXdAC-136" target="Kf4U1MBV0LvPlCfvXdAC-139">
          <mxGeometry relative="1" as="geometry" />
        </mxCell>
        <mxCell id="Kf4U1MBV0LvPlCfvXdAC-144" style="edgeStyle=orthogonalEdgeStyle;curved=1;orthogonalLoop=1;jettySize=auto;html=1;exitX=1;exitY=0.75;exitDx=0;exitDy=0;entryX=0;entryY=0.5;entryDx=0;entryDy=0;" edge="1" parent="1" source="Kf4U1MBV0LvPlCfvXdAC-136" target="Kf4U1MBV0LvPlCfvXdAC-140">
          <mxGeometry relative="1" as="geometry" />
        </mxCell>
        <mxCell id="Kf4U1MBV0LvPlCfvXdAC-136" value="Payment" style="whiteSpace=wrap;html=1;align=center;" vertex="1" parent="1">
          <mxGeometry x="630" y="670" width="100" height="40" as="geometry" />
        </mxCell>
        <mxCell id="Kf4U1MBV0LvPlCfvXdAC-137" value="Total_Amount" style="ellipse;whiteSpace=wrap;html=1;align=center;" vertex="1" parent="1">
          <mxGeometry x="780" y="620" width="100" height="40" as="geometry" />
        </mxCell>
        <mxCell id="Kf4U1MBV0LvPlCfvXdAC-138" value="Fund_Percentage" style="ellipse;whiteSpace=wrap;html=1;align=center;" vertex="1" parent="1">
          <mxGeometry x="780" y="670" width="110" height="40" as="geometry" />
        </mxCell>
        <mxCell id="Kf4U1MBV0LvPlCfvXdAC-139" value="Installmentd&lt;br&gt;Number" style="ellipse;whiteSpace=wrap;html=1;align=center;" vertex="1" parent="1">
          <mxGeometry x="785" y="720" width="100" height="40" as="geometry" />
        </mxCell>
        <mxCell id="Kf4U1MBV0LvPlCfvXdAC-140" value="Payment_ID" style="ellipse;whiteSpace=wrap;html=1;align=center;fontStyle=4;" vertex="1" parent="1">
          <mxGeometry x="780" y="770" width="100" height="40" as="geometry" />
        </mxCell>
        <mxCell id="Kf4U1MBV0LvPlCfvXdAC-147" value="Relationship" style="shape=rhombus;double=1;perimeter=rhombusPerimeter;whiteSpace=wrap;html=1;align=center;" vertex="1" parent="1">
          <mxGeometry x="630" y="860" width="120" height="60" as="geometry" />
        </mxCell>
        <mxCell id="Kf4U1MBV0LvPlCfvXdAC-152" style="edgeStyle=orthogonalEdgeStyle;curved=1;orthogonalLoop=1;jettySize=auto;html=1;exitX=1;exitY=0.25;exitDx=0;exitDy=0;entryX=0;entryY=0.5;entryDx=0;entryDy=0;" edge="1" parent="1" source="Kf4U1MBV0LvPlCfvXdAC-148" target="Kf4U1MBV0LvPlCfvXdAC-149">
          <mxGeometry relative="1" as="geometry" />
        </mxCell>
        <mxCell id="Kf4U1MBV0LvPlCfvXdAC-153" style="edgeStyle=orthogonalEdgeStyle;curved=1;orthogonalLoop=1;jettySize=auto;html=1;exitX=1;exitY=0.5;exitDx=0;exitDy=0;entryX=0;entryY=0.5;entryDx=0;entryDy=0;" edge="1" parent="1" source="Kf4U1MBV0LvPlCfvXdAC-148" target="Kf4U1MBV0LvPlCfvXdAC-150">
          <mxGeometry relative="1" as="geometry" />
        </mxCell>
        <mxCell id="Kf4U1MBV0LvPlCfvXdAC-154" style="edgeStyle=orthogonalEdgeStyle;curved=1;orthogonalLoop=1;jettySize=auto;html=1;exitX=1;exitY=0.75;exitDx=0;exitDy=0;entryX=0;entryY=0.5;entryDx=0;entryDy=0;" edge="1" parent="1" source="Kf4U1MBV0LvPlCfvXdAC-148" target="Kf4U1MBV0LvPlCfvXdAC-151">
          <mxGeometry relative="1" as="geometry" />
        </mxCell>
        <mxCell id="Kf4U1MBV0LvPlCfvXdAC-148" value="Installment" style="shape=ext;margin=3;double=1;whiteSpace=wrap;html=1;align=center;" vertex="1" parent="1">
          <mxGeometry x="630" y="980" width="100" height="40" as="geometry" />
        </mxCell>
        <mxCell id="Kf4U1MBV0LvPlCfvXdAC-149" value="Date" style="ellipse;whiteSpace=wrap;html=1;align=center;" vertex="1" parent="1">
          <mxGeometry x="800" y="940" width="100" height="40" as="geometry" />
        </mxCell>
        <mxCell id="Kf4U1MBV0LvPlCfvXdAC-150" value="Amount" style="ellipse;whiteSpace=wrap;html=1;align=center;" vertex="1" parent="1">
          <mxGeometry x="800" y="990" width="100" height="40" as="geometry" />
        </mxCell>
        <mxCell id="Kf4U1MBV0LvPlCfvXdAC-151" value="Status" style="ellipse;whiteSpace=wrap;html=1;align=center;" vertex="1" parent="1">
          <mxGeometry x="800" y="1040" width="100" height="40" as="geometry" />
        </mxCell>
        <mxCell id="Kf4U1MBV0LvPlCfvXdAC-155" value="" style="shape=link;html=1;curved=1;exitX=0.5;exitY=1;exitDx=0;exitDy=0;entryX=0.5;entryY=0;entryDx=0;entryDy=0;" edge="1" parent="1" source="Kf4U1MBV0LvPlCfvXdAC-122" target="Kf4U1MBV0LvPlCfvXdAC-156">
          <mxGeometry width="100" relative="1" as="geometry">
            <mxPoint x="205" y="739.17" as="sourcePoint" />
            <mxPoint x="234" y="739" as="targetPoint" />
          </mxGeometry>
        </mxCell>
        <mxCell id="Kf4U1MBV0LvPlCfvXdAC-159" style="edgeStyle=orthogonalEdgeStyle;curved=1;orthogonalLoop=1;jettySize=auto;html=1;exitX=0;exitY=1;exitDx=0;exitDy=0;entryX=0.5;entryY=0;entryDx=0;entryDy=0;" edge="1" parent="1" source="Kf4U1MBV0LvPlCfvXdAC-156" target="Kf4U1MBV0LvPlCfvXdAC-157">
          <mxGeometry relative="1" as="geometry" />
        </mxCell>
        <mxCell id="Kf4U1MBV0LvPlCfvXdAC-160" style="edgeStyle=orthogonalEdgeStyle;curved=1;orthogonalLoop=1;jettySize=auto;html=1;exitX=1;exitY=1;exitDx=0;exitDy=0;entryX=0.5;entryY=0;entryDx=0;entryDy=0;" edge="1" parent="1" source="Kf4U1MBV0LvPlCfvXdAC-156" target="Kf4U1MBV0LvPlCfvXdAC-158">
          <mxGeometry relative="1" as="geometry" />
        </mxCell>
        <mxCell id="Kf4U1MBV0LvPlCfvXdAC-156" value="D" style="ellipse;whiteSpace=wrap;html=1;aspect=fixed;" vertex="1" parent="1">
          <mxGeometry x="225" y="710" width="40" height="40" as="geometry" />
        </mxCell>
        <mxCell id="Kf4U1MBV0LvPlCfvXdAC-157" value="Payed" style="whiteSpace=wrap;html=1;align=center;" vertex="1" parent="1">
          <mxGeometry x="80" y="810" width="100" height="40" as="geometry" />
        </mxCell>
        <mxCell id="Kf4U1MBV0LvPlCfvXdAC-158" value="Non-Payment" style="whiteSpace=wrap;html=1;align=center;" vertex="1" parent="1">
          <mxGeometry x="275" y="810" width="100" height="40" as="geometry" />
        </mxCell>
        <mxCell id="Kf4U1MBV0LvPlCfvXdAC-161" value="SuperVise" style="shape=rhombus;perimeter=rhombusPerimeter;whiteSpace=wrap;html=1;align=center;" vertex="1" parent="1">
          <mxGeometry x="-30" y="560" width="120" height="60" as="geometry" />
        </mxCell>
        <mxCell id="Kf4U1MBV0LvPlCfvXdAC-162" value="" style="edgeStyle=entityRelationEdgeStyle;fontSize=12;html=1;endArrow=ERoneToMany;curved=1;entryX=1;entryY=0.5;entryDx=0;entryDy=0;exitX=0;exitY=0.5;exitDx=0;exitDy=0;" edge="1" parent="1" source="Kf4U1MBV0LvPlCfvXdAC-161" target="Kf4U1MBV0LvPlCfvXdAC-110">
          <mxGeometry width="100" height="100" relative="1" as="geometry">
            <mxPoint x="-560" y="636.6666666666666" as="sourcePoint" />
            <mxPoint x="-480" y="500" as="targetPoint" />
          </mxGeometry>
        </mxCell>
        <mxCell id="Kf4U1MBV0LvPlCfvXdAC-165" value="" style="edgeStyle=entityRelationEdgeStyle;fontSize=12;html=1;endArrow=ERmandOne;curved=1;entryX=0;entryY=0.5;entryDx=0;entryDy=0;exitX=1;exitY=0.5;exitDx=0;exitDy=0;" edge="1" parent="1" source="Kf4U1MBV0LvPlCfvXdAC-161" target="Kf4U1MBV0LvPlCfvXdAC-23">
          <mxGeometry width="100" height="100" relative="1" as="geometry">
            <mxPoint x="-50" y="420" as="sourcePoint" />
            <mxPoint x="50" y="320" as="targetPoint" />
          </mxGeometry>
        </mxCell>
        <mxCell id="Kf4U1MBV0LvPlCfvXdAC-167" value="Register" style="shape=rhombus;perimeter=rhombusPerimeter;whiteSpace=wrap;html=1;align=center;" vertex="1" parent="1">
          <mxGeometry x="-50" y="310" width="120" height="60" as="geometry" />
        </mxCell>
        <mxCell id="Kf4U1MBV0LvPlCfvXdAC-168" value="" style="edgeStyle=entityRelationEdgeStyle;fontSize=12;html=1;endArrow=ERmandOne;curved=1;entryX=0.25;entryY=1;entryDx=0;entryDy=0;exitX=1;exitY=0.5;exitDx=0;exitDy=0;" edge="1" parent="1" source="Kf4U1MBV0LvPlCfvXdAC-167" target="Kf4U1MBV0LvPlCfvXdAC-22">
          <mxGeometry width="100" height="100" relative="1" as="geometry">
            <mxPoint x="-70" y="300" as="sourcePoint" />
            <mxPoint x="30" y="200" as="targetPoint" />
          </mxGeometry>
        </mxCell>
        <mxCell id="Kf4U1MBV0LvPlCfvXdAC-169" value="" style="edgeStyle=entityRelationEdgeStyle;fontSize=12;html=1;endArrow=ERmandOne;curved=1;entryX=0.5;entryY=0;entryDx=0;entryDy=0;" edge="1" parent="1" source="Kf4U1MBV0LvPlCfvXdAC-167" target="Kf4U1MBV0LvPlCfvXdAC-46">
          <mxGeometry width="100" height="100" relative="1" as="geometry">
            <mxPoint x="-60" y="310" as="sourcePoint" />
            <mxPoint x="40" y="210" as="targetPoint" />
          </mxGeometry>
        </mxCell>
        <mxCell id="Kf4U1MBV0LvPlCfvXdAC-170" value="" style="edgeStyle=entityRelationEdgeStyle;fontSize=12;html=1;endArrow=ERmandOne;curved=1;entryX=0.166;entryY=-0.006;entryDx=0;entryDy=0;entryPerimeter=0;exitX=0.5;exitY=1;exitDx=0;exitDy=0;" edge="1" parent="1" source="Kf4U1MBV0LvPlCfvXdAC-65" target="Kf4U1MBV0LvPlCfvXdAC-46">
          <mxGeometry width="100" height="100" relative="1" as="geometry">
            <mxPoint x="-60" y="310" as="sourcePoint" />
            <mxPoint x="40" y="210" as="targetPoint" />
          </mxGeometry>
        </mxCell>
        <mxCell id="Kf4U1MBV0LvPlCfvXdAC-171" value="" style="edgeStyle=entityRelationEdgeStyle;fontSize=12;html=1;endArrow=ERmandOne;curved=1;entryX=0.25;entryY=1;entryDx=0;entryDy=0;exitX=0.5;exitY=0;exitDx=0;exitDy=0;" edge="1" parent="1" source="Kf4U1MBV0LvPlCfvXdAC-65" target="Kf4U1MBV0LvPlCfvXdAC-68">
          <mxGeometry width="100" height="100" relative="1" as="geometry">
            <mxPoint x="-60" y="310" as="sourcePoint" />
            <mxPoint x="40" y="210" as="targetPoint" />
          </mxGeometry>
        </mxCell>
        <mxCell id="Kf4U1MBV0LvPlCfvXdAC-172" value="" style="edgeStyle=entityRelationEdgeStyle;fontSize=12;html=1;endArrow=ERoneToMany;curved=1;entryX=1;entryY=0.5;entryDx=0;entryDy=0;exitX=1;exitY=0.5;exitDx=0;exitDy=0;" edge="1" parent="1" source="Kf4U1MBV0LvPlCfvXdAC-87" target="Kf4U1MBV0LvPlCfvXdAC-68">
          <mxGeometry width="100" height="100" relative="1" as="geometry">
            <mxPoint x="-60" y="120" as="sourcePoint" />
            <mxPoint x="40" y="20" as="targetPoint" />
          </mxGeometry>
        </mxCell>
        <mxCell id="Kf4U1MBV0LvPlCfvXdAC-173" value="" style="edgeStyle=entityRelationEdgeStyle;fontSize=12;html=1;endArrow=ERoneToMany;curved=1;entryX=0.25;entryY=1;entryDx=0;entryDy=0;exitX=0;exitY=0.5;exitDx=0;exitDy=0;" edge="1" parent="1" source="Kf4U1MBV0LvPlCfvXdAC-87" target="Kf4U1MBV0LvPlCfvXdAC-76">
          <mxGeometry width="100" height="100" relative="1" as="geometry">
            <mxPoint x="-60" y="-10" as="sourcePoint" />
            <mxPoint x="40" y="-110" as="targetPoint" />
          </mxGeometry>
        </mxCell>
      </root>
    </mxGraphModel>
  </diagram>
</mxfile>
